# xmcd
#
# Track frame offsets:
#	150
#	17176
#	34207
#	52585
#	69017
#	92119
#	113274
#	127962
#	152269
#	164506
#
# Disc length: 2476 seconds
# Revision: 0
# Processed by: cddbd v1.5.2PL0 Copyright (c) Steve Scherf et al.
# Submitted via: dBpowerAMP V12.0
#
DISCID=6709aa0a
DTITLE=Adam Sweet - Small Town Thinking
DYEAR=2013
DGENRE=
TTITLE0=At Times Like This
TTITLE1=The Best Thing She Ever Had
TTITLE2=Doin' Alright
TTITLE3=The Next Man After Me
TTITLE4=Evening
TTITLE5=I Work Alone
TTITLE6=Name Your Price
TTITLE7=You Think You're Lonely
TTITLE8=Santarosa Street
TTITLE9=When The Time Is Right
EXTD=
EXTT0=
EXTT1=
EXTT2=
EXTT3=
EXTT4=
EXTT5=
EXTT6=
EXTT7=
EXTT8=
EXTT9=
PLAYORDER=
